<mxfile host="65bd71144e">
    <diagram id="sizMA-cukVML33xJa-IT" name="Page-1">
        <mxGraphModel dx="764" dy="946" grid="1" gridSize="10" guides="1" tooltips="1" connect="1" arrows="1" fold="1" page="1" pageScale="1" pageWidth="850" pageHeight="1100" math="0" shadow="0">
            <root>
                <mxCell id="0"/>
                <mxCell id="1" parent="0"/>
                <mxCell id="2" value="" style="rounded=0;whiteSpace=wrap;html=1;" vertex="1" parent="1">
                    <mxGeometry x="80" y="80" width="680" height="740" as="geometry"/>
                </mxCell>
                <mxCell id="3" value="PHOTO" style="ellipse;whiteSpace=wrap;html=1;" vertex="1" parent="1">
                    <mxGeometry x="140" y="350" width="210" height="200" as="geometry"/>
                </mxCell>
                <mxCell id="4" value="USER NAME" style="rounded=0;whiteSpace=wrap;html=1;" vertex="1" parent="1">
                    <mxGeometry x="425" y="350" width="230" height="40" as="geometry"/>
                </mxCell>
                <mxCell id="5" value="EMAIL" style="rounded=0;whiteSpace=wrap;html=1;" vertex="1" parent="1">
                    <mxGeometry x="425" y="400" width="230" height="40" as="geometry"/>
                </mxCell>
                <mxCell id="6" value="GAMES WON/LOST RATIO" style="rounded=0;whiteSpace=wrap;html=1;" vertex="1" parent="1">
                    <mxGeometry x="425" y="450" width="230" height="40" as="geometry"/>
                </mxCell>
                <mxCell id="7" value="CORRECT ANSWERS" style="rounded=0;whiteSpace=wrap;html=1;" vertex="1" parent="1">
                    <mxGeometry x="425" y="500" width="230" height="40" as="geometry"/>
                </mxCell>
            </root>
        </mxGraphModel>
    </diagram>
</mxfile>